<?xml version="1.0" encoding="UTF-8"?>
<svg xmlns="http://www.w3.org/2000/svg" xmlns:xlink="http://www.w3.org/1999/xlink" viewBox="0 0 684 642">
  <defs>
    <style>
      .cls-1 {
        fill: url(#linear-gradient);
      }

      .cls-1, .cls-2, .cls-3, .cls-4, .cls-5, .cls-6, .cls-7 {
        stroke-width: 0px;
      }

      .cls-2 {
        fill: #000;
      }

      .cls-8 {
        clip-path: url(#clippath-2);
      }

      .cls-9 {
        isolation: isolate;
      }

      .cls-10 {
        clip-path: url(#clippath-6);
      }

      .cls-3 {
        fill: none;
      }

      .cls-11 {
        clip-path: url(#clippath-7);
      }

      .cls-12 {
        clip-path: url(#clippath-1);
      }

      .cls-13 {
        clip-path: url(#clippath-4);
      }

      .cls-4 {
        fill: url(#linear-gradient-2);
      }

      .cls-5 {
        fill: url(#linear-gradient-3);
      }

      .cls-14 {
        clip-path: url(#clippath);
      }

      .cls-15 {
        clip-path: url(#clippath-3);
      }

      .cls-6 {
        fill: #fff;
      }

      .cls-16 {
        mask: url(#mask);
      }

      .cls-17 {
        clip-path: url(#clippath-5);
      }

      .cls-7 {
        fill: url(#linear-gradient-4);
      }
    </style>
    <clipPath id="clippath">
      <rect class="cls-3" x="121.52" y="60.01" width="440.97" height="432.75"/>
    </clipPath>
    <clipPath id="clippath-1">
      <rect class="cls-3" x="121.52" y="60.01" width="440.97" height="432.75"/>
    </clipPath>
    <clipPath id="clippath-2">
      <path class="cls-3" d="M174.94,60.01c-29.39,0-53.43,24.04-53.43,53.43v325.58c0,29.39,24.04,53.43,53.43,53.43h333.32c29.39,0,53.43-24.04,53.43-53.43V113.44c0-29.39-24.05-53.43-53.43-53.43H174.94Z"/>
    </clipPath>
    <linearGradient id="linear-gradient" x1="2054.27" y1="2461.6" x2="2060.32" y2="2461.6" gradientTransform="translate(-176990.25 212459.69) scale(86.2 -86.2)" gradientUnits="userSpaceOnUse">
      <stop offset="0" stop-color="#135093"/>
      <stop offset="1" stop-color="#005dac"/>
    </linearGradient>
    <clipPath id="clippath-3">
      <rect class="cls-3" x="121.52" y="60.01" width="440.97" height="432.75"/>
    </clipPath>
    <clipPath id="clippath-4">
      <path class="cls-3" d="M307.78,425.23c-6-5.68-8.99-14.98-8.99-27.91s2.99-21.37,8.99-27.2c5.99-5.84,17.35-8.76,34.06-8.76s27.6,2.92,33.6,8.76c5.99,5.84,8.99,14.9,8.99,27.2,0,12.93-3,22.23-8.99,27.91-6,5.68-17.2,8.51-33.6,8.51s-28.07-2.84-34.06-8.51M498.98,132.68c5.99,5.84,8.99,14.9,8.99,27.2,0,12.93-3,22.23-8.99,27.91-6,5.68-17.2,8.51-33.59,8.51s-28.05-2.83-34.04-8.5c8.23,10.59,20.48,18.29,29.8,29.72,3.68-1.53,8.12-.87,11.11,2.01l48.37,46.64c6.17,5.95,1.71,15.99-7.1,15.99h-18.07l-.1,87.78c-1.86,28.4-26.31,51.51-56.35,53.27-1.61.1-3.19.1-4.77.07-12.87-.47-23.16-10.45-23.16-22.73v-20.16c0-7.68,4.21-14.68,10.9-19.04,8.3-5.41,17.15.25,15.52-23.57v-55.62h-20.72c-8.82,0-13.27-10.04-7.1-15.99l35.33-34.07c-22.8-22.88-45.61-45.76-68.53-68.52-8.5-8.03-15.77-16.73-23.98-24.1,4.58,4.84,8.12,10.61,10.63,17.32,3.35,8.96,5.02,20.03,5.02,33.18v96.87h16.9c8.34,0,12.56,10.04,6.72,15.99l-45.73,46.65c-3.69,3.76-9.75,3.76-13.43,0l-45.74-46.65c-5.83-5.94-1.61-15.99,6.72-15.99h17.54v-92.57c0-5.02-.36-9.32-1.08-12.91-.72-3.59-2.16-6.58-4.31-8.97-2.16-2.39-5.33-4.12-9.51-5.2-4.19-1.08-9.75-1.61-16.68-1.61s-12.5.54-16.68,1.61c-4.19,1.08-7.35,2.81-9.51,5.2-2.15,2.39-3.59,5.38-4.31,8.97-.72,3.59-1.08,7.88-1.08,12.91v118.35c0,15.75-12.76,28.52-28.52,28.52-8.82,0-16.6-4.09-21.83-10.38,8.22,11.63,22.12,20.21,30.96,31.17,10.12,1.13,17.41,3.84,21.85,8.15,5.99,5.84,8.99,14.9,8.99,27.2,0,12.93-3,22.23-8.99,27.91-6,5.68-17.2,8.51-33.6,8.51s-28.07-2.84-34.06-8.51c22.5,22.3,44.9,44.72,67.23,67.21h258.23c29.39,0,53.43-24.04,53.43-53.43v-243.51c-19.63-19.65-39.26-39.3-58.87-58.97-1.37-2.27-3.56-4.18-6.25-5.82.87.62,1.67,1.27,2.4,1.97"/>
    </clipPath>
    <linearGradient id="linear-gradient-2" x1="2036.24" y1="2440.48" x2="2042.29" y2="2440.48" gradientTransform="translate(-170001.33 -142024.06) rotate(90) scale(69.81 -69.81)" gradientUnits="userSpaceOnUse">
      <stop offset="0" stop-color="#fff"/>
      <stop offset="1" stop-color="#333"/>
    </linearGradient>
    <mask id="mask" x="1.93" y="-58.73" width="740.62" height="740.62" maskUnits="userSpaceOnUse">
      <rect class="cls-4" x="110.4" y="49.73" width="523.7" height="523.7" transform="translate(-111.29 354.48) rotate(-45)"/>
    </mask>
    <linearGradient id="linear-gradient-3" x1="2036.24" y1="2440.48" x2="2042.29" y2="2440.48" gradientTransform="translate(-170001.33 -142024.06) rotate(90) scale(69.81 -69.81)" gradientUnits="userSpaceOnUse">
      <stop offset="0" stop-color="#1a3e66"/>
      <stop offset="1" stop-color="#1a3e66"/>
    </linearGradient>
    <clipPath id="clippath-5">
      <rect class="cls-3" x="121.52" y="60.01" width="440.97" height="432.75"/>
    </clipPath>
    <clipPath id="clippath-6">
      <rect class="cls-3" x="715.55" y="492.79" width="348.13" height="80.25"/>
    </clipPath>
    <clipPath id="clippath-7">
      <path class="cls-3" d="M787,552.41c-8,.57-15.66,2.62-22.13,7.69-4.31,3.28-1.06,10.18,4.19,8.83,8.68-2.45,15.83-8.62,19.72-16.61-.6.02-1.19.05-1.78.09M744.56,547.19l-.35,1.39c3.69-1.5,7.58-2.66,11.62-3.46l-3.54-1.75-7.73,3.82ZM773.24,542.83s-.08.04-.08.08v1.04c2.15.13,4.31.36,6.45.68v-1.81h0s-6.36,0-6.36,0ZM797.11,543.69l-3.09-.08,4.88,3.11-.47-1.86,3.09.08-4.88-3.11.47,1.86ZM722.28,543.61l-3.05-.5,4.41,3.74-.22-1.9,3.05.5-4.41-3.74.22,1.91ZM754.32,542.36l4.46,2.21s.02.02.04.02c.09-.01.19-.03.28-.04l-1.02-4.05-3.77,1.86ZM745.14,544.89l5.12-2.53-3.99-1.97-1.13,4.5ZM746.92,538.7l5.37,2.65,5.35-2.64v-.02s-5.35-2.64-5.35-2.64l-5.37,2.65ZM754.32,535.04l2.73,1.35-.6-2.4-2.13,1.05ZM747.24,536.53l3.02-1.49-2.35-1.16-.67,2.65ZM796.89,535.72l-2.4.13.09,1.68,2.42-.13,4.31,1.84-.1-1.86-2.45-.91,2.34-1.17-.1-1.85-4.11,2.29ZM777.39,533.4l-3.54,3.89c-.05.05-.01.14.06.14h1.77c.05,0,.09.05.08.1l-.47,2.78c-.01.08.09.13.14.07l3.55-3.9c.05-.05.01-.14-.06-.14h-1.77c-.05,0-.09-.05-.08-.1l.47-2.78c0-.06-.04-.1-.08-.1-.02,0-.04,0-.06.03M719.79,533.47l3.76.34-4.01,2.46-.14,1.57,6.61.6.15-1.64-3.79-.34,4.04-2.47.14-1.56-6.61-.6-.15,1.64ZM748.44,532.13l3.85,1.91,3.71-1.84v-.02s-3.83-2.21-3.83-2.21l-3.74,2.16ZM753.95,528.95l1.45.83-.37-1.46-1.08.62ZM748.93,529.79l1.47-.85-1.1-.63-.37,1.48ZM797.08,529.76l-.07-.31,1.73-.39.07.31c.14.63-.11,1.08-.63,1.2-.07.02-.15.03-.22.03-.42,0-.76-.3-.88-.83M793.21,528.62l.37,1.62,2.55-.58-2.24,1.96.44,1.92,2.23-2.2c.49.73,1.27,1.04,2.12.85,1.18-.27,1.84-1.35,1.49-2.88l-.49-2.16-6.47,1.48ZM721.05,526.85c-.38,1.29.2,2.42,1.32,2.75.91.27,1.75,0,2.42-.99l.24-.34c.33-.49.59-.61.87-.52.3.09.48.4.34.87-.16.55-.61,1.13-1.29,1.68l1.41.65c.63-.57,1.06-1.22,1.27-1.95.44-1.49-.3-2.54-1.37-2.85-.87-.26-1.75.03-2.44,1.04l-.24.34c-.33.49-.57.61-.86.53-.29-.09-.44-.37-.32-.77.13-.44.46-.93,1-1.49l-1.38-.63c-.49.55-.81,1.12-.98,1.7M791.18,523.52l1.53,3.67,1.44-.37-.98-2.34,1.08-.45.76,1.83,1.36-.57-.76-1.83.98-.41.94,2.26,1.27-.76-1.5-3.59-6.12,2.56ZM752.05,519.34c-.28,0-.53.19-.6.47l-1.69,6.71,2.42,1.4,2.4-1.39-1.69-6.72c-.07-.28-.32-.47-.6-.47h-.24ZM724.7,521.66l.17-.34c.28-.57.83-.79,1.34-.54.51.25.69.83.41,1.4l-.17.34-1.75-.86ZM723.67,520.54l-.98,2,5.95,2.93.74-1.5-1.65-.81.24-.49c.66-1.33.23-2.78-1.01-3.39-.34-.17-.69-.25-1.03-.25-.91,0-1.78.55-2.25,1.52M725.93,516.51l5.51,3.69.93-1.39-5.51-3.69-.93,1.39ZM788.42,518.91l1.06,1.61,6.82-1.71-1-1.51-4.65,1.28,3.01-3.77-1-1.51-4.25,5.6ZM785.21,514.99l1.12,1.25,4.92-4.45-1.12-1.25-4.92,4.45ZM729.65,511.51l4.76,4.62,2.77-2.86-.91-1.17-1.77,1.82-.84-.81,1.38-1.42-1.05-1.02-1.38,1.42-.76-.74,1.7-1.75-1.2-.87-2.71,2.79ZM740.77,524.37c0-.5.41-.91.91-.91s.91.41.91.91-.41.91-.91.91-.91-.41-.91-.91M761.59,524.37c0-.5.41-.91.91-.91s.91.41.91.91-.41.91-.91.91-.91-.41-.91-.91M771.44,523.19h0c0,.39.16.73.42.97-1.17.49-3.1,1.12-5.36,1.12-.9,0-1.84-.1-2.82-.35.08-.17.13-.36.13-.57,0-.18-.04-.36-.1-.51.95.26,1.88.37,2.76.37,2.08,0,3.89-.58,4.97-1.03M771.86,523.2c0-.5.41-.91.91-.91s.91.41.91.91-.41.91-.91.91-.91-.41-.91-.91M779.73,523.2c0-.5.41-.91.91-.91s.91.41.91.91-.41.91-.91.91-.91-.41-.91-.91M740.21,522.53v-.4c0-.28.23-.51.51-.51h1.9c.28,0,.51.23.51.51v.4c0,.28-.23.51-.51.51h-1.9c-.28,0-.51-.23-.51-.51M761.03,522.53v-.4c0-.28.23-.51.51-.51h1.9c.28,0,.51.23.51.51v.4c0,.28-.23.51-.51.51h-1.9c-.28,0-.51-.23-.51-.51M740.21,520.67v-.4c0-.28.23-.51.51-.51h1.9c.28,0,.51.23.51.51v.4c0,.28-.23.51-.51.51h-1.9c-.28,0-.51-.23-.51-.51M761.03,520.67v-.4c0-.28.23-.51.51-.51h1.9c.28,0,.51.23.51.51v.4c0,.28-.23.51-.51.51h-1.9c-.28,0-.51-.23-.51-.51M732.49,523.34c1.75.67,4.88,1.45,8.09.28-.15.21-.24.47-.24.75,0,.14.02.28.07.41-1.16.36-2.3.5-3.36.5-2.08,0-3.88-.54-5.07-1.01-2.26,4.37-3.54,9.32-3.54,14.58,0,5.8,1.56,11.23,4.27,15.9,2.83-1.97,5.88-3.69,9.09-5.16-.06-.12-.08-.27-.04-.42l4.47-17.78-.03-.05.05-.03,2.82-11.23c.1-.39-.2-.77-.6-.77h-8.08c-.34,0-.62-.28-.62-.62v-1.33c0-.34.28-.62.62-.62h23.45c.34,0,.62.28.62.62v1.33c0,.34-.28.62-.62.62h-7.98c-.4,0-.7.38-.6.77l2.82,11.22.07.04-.04.07,3.22,12.81c2.53-.29,5.1-.43,7.7-.43.51,0,1.02,0,1.54.02v-.93s-.04-.08-.08-.08h-.39c-.61,0-1.1-.49-1.1-1.1v-9.68c0-.61.49-1.1,1.1-1.1h1.69s.08-.04.08-.08v-.54s-.04-.08-.08-.08h-.64s-.08-.04-.08-.08v-1.53s.04-.08.08-.08h.64s.08-.04.08-.08v-1.15s-.04-.08-.08-.08h-.64s-.08-.04-.08-.08v-1.53s.04-.08.08-.08h.64s.08-.04.08-.08v-.8s.04-.08.08-.08h1.53s.08.04.08.08v.8s.04.08.08.08h.64s.08.04.08.08v1.53s-.04.08-.08.08h-.64s-.08.04-.08.08v1.15s.04.08.08.08h.64s.08.04.08.08v1.53s-.04.08-.08.08h-.64s-.08.04-.08.08v.54s.04.08.08.08h6.07s.08-.04.08-.08v-.54s-.04-.08-.08-.08h-.64s-.08-.04-.08-.08v-1.53s.04-.08.08-.08h.64s.08-.04.08-.08v-1.15s-.04-.08-.08-.08h-.64s-.08-.04-.08-.08v-1.53s.04-.08.08-.08h.64s.08-.04.08-.08v-.8s.04-.08.08-.08h1.53s.08.04.08.08v.8s.04.08.08.08h.64s.08.04.08.08v1.53s-.04.08-.08.08h-.64s-.08.04-.08.08v1.15s.04.08.08.08h.64s.08.04.08.08v1.53s-.04.08-.08.08h-.64s-.08.04-.08.08v.54s.04.08.08.08h1.15c.61,0,1.1.49,1.1,1.1v9.68c0,.61-.49,1.1-1.1,1.1h-.52v2.24s0,.01,0,.02c2.54.49,5.06,1.11,7.55,1.87l.92.28.15.05c.73-2.68,1.13-5.5,1.13-8.41,0-5.27-1.29-10.24-3.56-14.61-.89.21-1.9.35-2.99.35-1.17,0-2.42-.17-3.7-.61.17-.22.27-.5.27-.8,0-.08,0-.15-.02-.23,2.14.76,4.24.66,5.91.31-5.45-9.65-15.8-16.16-27.66-16.16s-22.26,6.54-27.7,16.23M781.49,511.55l2.85,2.49,1.24-1.06-1.76-1.54,3.3-3.78-1.26-1.1-4.36,5ZM738.12,504.23l2.16,3.09-4.47-1.48-1.29.9,3.8,5.44,1.35-.94-2.17-3.12,4.49,1.5,1.28-.89-3.8-5.44-1.35.94ZM776.96,508.53l3.36,2.13.96-1.13-2.15-1.36.62-.98,1.67,1.06.79-1.24-1.67-1.06.57-.9,2.07,1.31.61-1.35-3.28-2.08-3.55,5.61ZM742.02,501.96l2.68,6.07,3.64-1.61-.4-1.43-2.32,1.03-.47-1.07,1.81-.8-.59-1.34-1.81.8-.43-.97,2.24-.99-.78-1.26-3.55,1.57ZM773.19,505.11l-.35-.14,1.31-3.25.35.14c.98.4,1.4,1.35,1.01,2.3-.28.7-.88,1.11-1.57,1.11-.24,0-.5-.05-.75-.15M770.7,505.79l1.97.79c1.79.75,3.77-.04,4.44-1.79.72-1.72-.15-3.67-1.96-4.37l-1.97-.79-2.48,6.15ZM750.1,500.36l.3-.08c.63-.16,1.09.09,1.22.6.13.51-.16.96-.79,1.11l-.3.08-.43-1.72ZM750.32,498.92l-2.15.54,1.61,6.44,1.61-.4-.64-2.54,2.01,2.19,1.91-.48-2.25-2.18c.72-.5,1.02-1.29.8-2.14-.24-.95-.99-1.54-2.07-1.54-.26,0-.54.04-.84.11M764.44,502.12l-.32,2.39,1.66.22.32-2.4,2.61-3.9-1.85-.25-1.35,2.24-.71-2.52-1.84-.25,1.48,4.46ZM758.61,497.57c-1.97.07-3.55,1.76-3.4,3.66.07,1.89,1.79,3.4,3.71,3.26.82-.05,1.64-.33,2.29-.78l-.19-3.48-2.55.14-.12,1.41,1.25-.07.06,1.03c-.21.1-.47.16-.75.17-1.08.06-1.96-.71-2.02-1.78-.06-1.07.75-1.93,1.85-1.99.53-.03,1.12.09,1.63.36l.15-1.58c-.49-.23-1.07-.35-1.66-.35-.08,0-.17,0-.25,0M760.51,492.79c-24.79,0-44.96,20.17-44.96,44.96,0,8.4,2.35,16.61,6.79,23.73l.18.29,1.49-1.18-.14-.23c-4.2-6.79-6.43-14.6-6.43-22.61,0-23.75,19.32-43.07,43.07-43.07s43.07,19.32,43.07,43.07c0,12.18-5.11,23.67-14.1,31.84h2.73c8.45-8.42,13.26-19.87,13.26-31.84,0-24.79-20.17-44.96-44.96-44.96Z"/>
    </clipPath>
    <linearGradient id="linear-gradient-4" x1="2076.24" y1="2446.32" x2="2076.61" y2="2446.32" gradientTransform="translate(-505773.44 597293.98) scale(243.94 -243.94)" gradientUnits="userSpaceOnUse">
      <stop offset="0" stop-color="#30528f"/>
      <stop offset="0" stop-color="#30528f"/>
      <stop offset="1" stop-color="#3a5ea7"/>
      <stop offset="1" stop-color="#3a5ea7"/>
    </linearGradient>
  </defs>
  <g class="cls-9">
    <g id="Layer_1" data-name="Layer 1">
      <g>
        <path class="cls-2" d="M41.12,608.76v-46.62c0-5,.63-9.2,1.91-12.61,1.27-3.41,3.25-6.18,5.93-8.32,2.68-2.13,6.16-3.66,10.43-4.57,4.27-.91,9.41-1.36,15.41-1.36s11.13.46,15.41,1.36c4.27.91,7.75,2.43,10.43,4.57,2.68,2.14,4.66,4.91,5.93,8.32,1.27,3.41,1.91,7.61,1.91,12.61v46.62h-21.68v-44.99c0-1.91-.14-3.54-.41-4.91s-.82-2.5-1.64-3.41c-.82-.91-2.02-1.57-3.61-1.98-1.59-.41-3.7-.61-6.34-.61s-4.75.2-6.34.61c-1.59.41-2.79,1.07-3.61,1.98-.82.91-1.36,2.05-1.64,3.41-.27,1.36-.41,3-.41,4.91v44.99h-21.68Z"/>
        <path class="cls-2" d="M144.73,517.82c0,3.73-.87,6.41-2.59,8.04-1.73,1.64-4.95,2.45-9.68,2.45s-8.09-.82-9.82-2.45c-1.73-1.64-2.59-4.32-2.59-8.04s.86-6.16,2.59-7.84c1.73-1.68,5-2.52,9.82-2.52s7.95.84,9.68,2.52c1.72,1.68,2.59,4.29,2.59,7.84ZM121.56,537.46h21.68v71.3h-21.68v-71.3Z"/>
        <path class="cls-2" d="M156.32,608.76v-47.03c0-5,.68-9.2,2.04-12.61s3.34-6.14,5.93-8.18,5.77-3.5,9.54-4.36c3.77-.86,8.02-1.3,12.75-1.3,10.36,0,17.9,2.64,22.63,7.91,4.54-5.27,12.18-7.91,22.9-7.91,4.64,0,8.82.43,12.54,1.3,3.73.86,6.88,2.32,9.47,4.36,2.59,2.04,4.57,4.77,5.93,8.18,1.36,3.41,2.04,7.61,2.04,12.61v47.03h-21.68v-44.99c0-1.91-.12-3.54-.34-4.91-.23-1.36-.71-2.5-1.43-3.41-.73-.91-1.75-1.57-3.07-1.98-1.32-.41-3.11-.61-5.39-.61-2.09,0-3.82.18-5.18.55-1.36.36-2.41.95-3.14,1.77-.73.82-1.23,1.84-1.5,3.07-.27,1.23-.41,2.71-.41,4.43v46.08h-21.68v-44.99c0-1.91-.12-3.54-.34-4.91-.23-1.36-.68-2.5-1.36-3.41-.68-.91-1.68-1.57-3-1.98-1.32-.41-3.11-.61-5.39-.61s-4.07.2-5.38.61c-1.32.41-2.34,1.07-3.07,1.98-.73.91-1.21,2.05-1.43,3.41-.23,1.36-.34,3-.34,4.91v44.99h-21.68Z"/>
        <path class="cls-2" d="M345.14,576.86c0,6.09-.61,11.29-1.84,15.61-1.23,4.32-3.25,7.84-6.07,10.57-2.82,2.73-6.48,4.73-10.97,6-4.5,1.27-10.02,1.91-16.56,1.91-6.18,0-11.45-.59-15.81-1.77s-7.93-3.09-10.7-5.73c-2.77-2.64-4.8-6.09-6.07-10.36-1.27-4.27-1.91-9.5-1.91-15.68v-69.94h21.68v32.04c1.91-1.27,4.25-2.29,7.02-3.07,2.77-.77,6.29-1.16,10.57-1.16,5.18,0,9.7.61,13.56,1.84,3.86,1.23,7.07,3.2,9.61,5.93,2.54,2.73,4.43,6.25,5.66,10.57,1.23,4.32,1.84,9.57,1.84,15.75v7.5ZM310.24,552.32c-2.73,0-4.95.2-6.68.61-1.73.41-3.09,1.18-4.09,2.32-1,1.14-1.68,2.68-2.04,4.64-.36,1.96-.55,4.43-.55,7.43v10.09c0,3.54.18,6.41.55,8.59.36,2.18,1.04,3.84,2.04,4.98,1,1.14,2.36,1.91,4.09,2.32,1.73.41,3.91.61,6.54.61,2.45,0,4.52-.18,6.2-.55,1.68-.36,3.04-1.11,4.09-2.25,1.04-1.14,1.77-2.79,2.18-4.98.41-2.18.61-5.09.61-8.73v-8.32c0-3.54-.2-6.43-.61-8.66-.41-2.23-1.11-3.93-2.11-5.11-1-1.18-2.32-1.98-3.95-2.39-1.64-.41-3.73-.61-6.27-.61Z"/>
        <path class="cls-2" d="M357,507.46h21.68v101.29h-21.68v-101.29Z"/>
        <path class="cls-2" d="M412.21,580.4c.09,2.36.34,4.27.75,5.73.41,1.46,1.14,2.64,2.18,3.54,1.04.91,2.43,1.52,4.16,1.84,1.73.32,3.91.48,6.54.48h12.07c4.32,0,9.16-.04,14.52-.14l-3.14,16.91c-4.55.18-8.77.27-12.68.27h-12.82c-6.45,0-11.82-.66-16.09-1.98-4.27-1.32-7.68-3.32-10.23-6-2.55-2.68-4.34-6.04-5.38-10.09-1.05-4.04-1.57-8.79-1.57-14.25v-7.5c0-5.73.57-10.7,1.7-14.93,1.14-4.23,3.04-7.75,5.73-10.57,2.68-2.82,6.18-4.93,10.5-6.34,4.32-1.41,9.66-2.11,16.02-2.11,11.45,0,19.63,2.39,24.54,7.16,4.91,4.77,7.36,11.43,7.36,19.97v2.86c0,3-.18,5.45-.55,7.36-.36,1.91-1.02,3.46-1.98,4.64-.95,1.18-2.2,2-3.75,2.45-1.55.46-3.46.68-5.73.68h-32.17ZM423.93,551.22c-2.45,0-4.43.2-5.93.61-1.5.41-2.68,1.14-3.54,2.18-.86,1.05-1.46,2.48-1.77,4.29-.32,1.82-.48,4.18-.48,7.09h23.59c0-2.91-.16-5.27-.48-7.09-.32-1.82-.93-3.25-1.84-4.29-.91-1.04-2.11-1.77-3.61-2.18-1.5-.41-3.48-.61-5.93-.61Z"/>
        <path class="cls-2" d="M480.24,568.13v40.63h-8.04v-97.07h32.31c6,0,11.13.48,15.41,1.43,4.27.95,7.72,2.5,10.36,4.64,2.64,2.14,4.57,4.89,5.79,8.25,1.23,3.36,1.84,7.45,1.84,12.27v3.27c0,4.82-.64,8.91-1.91,12.27-1.27,3.36-3.25,6.11-5.93,8.25-2.68,2.14-6.13,3.68-10.36,4.64s-9.29,1.43-15.2,1.43h-24.27ZM529.86,538.96c0-3.91-.43-7.16-1.3-9.75-.87-2.59-2.3-4.64-4.29-6.13-2-1.5-4.61-2.54-7.84-3.14-3.23-.59-7.2-.89-11.93-.89h-24.27v41.72h24.27c4.82,0,8.84-.29,12.07-.89,3.22-.59,5.84-1.64,7.84-3.14,2-1.5,3.41-3.54,4.23-6.13.82-2.59,1.23-5.84,1.23-9.75v-1.91Z"/>
        <path class="cls-2" d="M595.84,579.17l-32.86-54.53v84.12h-8.04v-97.07h8.86l35.58,59.3,34.49-59.3h9v97.07h-8.04v-84.8l-32.58,55.21h-6.41Z"/>
      </g>
      <g id="Artwork_31" data-name="Artwork 31">
        <g class="cls-14">
          <g class="cls-12">
            <g class="cls-8">
              <rect class="cls-1" x="121.52" y="60.01" width="440.18" height="432.43"/>
            </g>
            <g class="cls-15">
              <path class="cls-6" d="M436.8,423.35c-.3,0-.58-.03-.87-.04-.18,0-.36.01-.54,0,.47.01.94.04,1.41.04"/>
            </g>
            <g class="cls-13">
              <g class="cls-16">
                <rect class="cls-5" x="110.4" y="49.73" width="523.7" height="523.7" transform="translate(-111.29 354.48) rotate(-45)"/>
              </g>
            </g>
            <g class="cls-17">
              <path class="cls-6" d="M498.98,187.8c5.99-5.68,8.99-14.98,8.99-27.91s-3-21.36-8.99-27.2c-.72-.7-1.52-1.35-2.4-1.97-4.92-3.49-12.29-5.6-22.02-6.4-2.32-.19-4.77-.3-7.35-.34-.61-.01-1.19-.04-1.82-.04-1.53,0-2.96.05-4.4.1-2.44.08-4.79.21-6.98.44-.2.02-.38.05-.58.07-.99.11-1.91.25-2.85.39-6.8,1-12.17,2.77-16.1,5.32-.19.12-.4.22-.57.34-.92.63-1.75,1.32-2.5,2.04-.02.02-.05.04-.07.06-2.53,2.47-4.41,5.64-5.87,9.25-1.14,2.81-2.07,5.84-2.56,9.34-.37,2.67-.56,5.54-.56,8.62s.19,6.03.54,8.74c.02.16.04.33.07.49.19,1.41.57,2.62.86,3.91,1.4,6.17,3.79,11.14,7.4,14.62.04.04.07.1.12.15,0,0,.01.01.02.02,5.99,5.67,17.34,8.5,34.04,8.5s27.59-2.84,33.59-8.52"/>
              <path class="cls-6" d="M219.47,341.16h0c15.75,0,28.52-12.77,28.52-28.52v-118.34c0-5.02.36-9.32,1.08-12.92.72-3.59,2.15-6.57,4.31-8.97,2.15-2.39,5.32-4.12,9.51-5.2,4.18-1.08,9.74-1.61,16.68-1.61s12.49.54,16.68,1.61c4.18,1.08,7.35,2.81,9.51,5.2,2.15,2.39,3.59,5.38,4.3,8.97.72,3.59,1.08,7.89,1.08,12.92v92.57h-17.54c-8.33,0-12.55,10.04-6.71,15.99l45.73,46.64c3.69,3.77,9.74,3.77,13.43,0l45.73-46.64c5.84-5.95,1.62-15.99-6.71-15.99h-16.91v-96.88c0-13.15-1.67-24.21-5.02-33.17-2.51-6.71-6.06-12.49-10.64-17.32-1.54-1.63-3.2-3.14-4.97-4.56-2.77-2.21-5.96-4.09-9.37-5.79-.59-.3-1.15-.62-1.76-.9-.44-.21-.85-.44-1.31-.63-4.5-1.95-9.48-3.52-14.98-4.69h-.02c-11.24-2.39-24.75-3.59-40.53-3.59s-29.29,1.2-40.53,3.59c-11.24,2.39-20.39,6.4-27.44,12.01-7.06,5.62-12.26,12.92-15.6,21.88-3.36,8.96-5.02,20.03-5.02,33.17v122.65c0,6.94,2.58,13.21,6.69,18.15,5.23,6.28,13.01,10.37,21.83,10.37"/>
              <path class="cls-6" d="M416.78,282.17h20.72v55.62c1.63,23.82-7.23,18.16-15.52,23.57-6.69,4.37-10.9,11.36-10.9,19.04v20.16c0,12.28,10.3,22.26,23.16,22.72,1.58.03,3.17.03,4.77-.07,30.04-1.77,54.49-24.88,56.35-53.28l.1-87.77h18.07c8.82,0,13.28-10.04,7.1-15.99l-48.37-46.64c-2.99-2.88-7.43-3.54-11.11-2.01-1.12.47-2.19,1.12-3.1,2.01l-13.04,12.57-35.33,34.07c-6.17,5.95-1.71,15.99,7.1,15.99"/>
              <path class="cls-6" d="M341.84,361.36c-16.72,0-28.07,2.92-34.06,8.76-6,5.84-8.99,14.9-8.99,27.2,0,12.93,2.99,22.23,8.99,27.91,5.99,5.68,17.34,8.51,34.06,8.51s27.59-2.84,33.59-8.51c5.99-5.68,8.99-14.98,8.99-27.91s-3-21.36-8.99-27.2c-6-5.84-17.2-8.76-33.59-8.76"/>
              <path class="cls-6" d="M250.45,425.22c5.99-5.68,8.99-14.98,8.99-27.91s-3-21.36-8.99-27.2c-4.43-4.31-11.72-7.02-21.84-8.14-.3-.04-.59-.07-.89-.1-1.84-.18-3.79-.31-5.82-.39-1.1-.05-2.26-.07-3.42-.08-.55,0-1.06-.04-1.63-.04-1.52,0-2.96.05-4.39.1-8.7.3-15.78,1.47-21.2,3.55-3.49,1.34-6.33,3.02-8.47,5.1,0,0,0,0,0,0t-.01.01c-2.81,2.73-4.89,6.24-6.38,10.39-.24.66-.44,1.35-.64,2.04-.41,1.4-.73,2.88-1,4.43-.18.96-.36,1.92-.47,2.94-.27,2.25-.45,4.58-.47,7.1,0,.11-.02.19-.02.3,0,.04,0,.07,0,.12,0,2.85.2,5.48.5,7.98.09.73.21,1.42.32,2.12.3,1.84.68,3.57,1.14,5.19.19.67.38,1.35.6,2,1.49,4.28,3.6,7.83,6.42,10.5,5.99,5.68,17.34,8.52,34.06,8.52s27.59-2.84,33.59-8.52"/>
            </g>
          </g>
        </g>
      </g>
    </g>
    <g id="Objects">
      <g id="Artwork_23" data-name="Artwork 23">
        <g class="cls-10">
          <g class="cls-11">
            <rect class="cls-7" x="702.2" y="475.5" width="116.61" height="112.07" transform="translate(-163.88 451.47) rotate(-30)"/>
          </g>
        </g>
      </g>
    </g>
  </g>
</svg>